<svg width="87" height="72" class="arrow-left" viewBox="0 0 87 72" fill="none" xmlns="http://www.w3.org/2000/svg">
 <path style="transform-origin: center" transform="rotate(180)" d="M0.599995 36C0.599995 35.0453 0.979268 34.1297 1.65438 33.4546C2.32949 32.7795 3.24513 32.4002 4.19988 32.4002L74.7081 32.4002L48.4514 6.14866C48.117 5.8142 47.8516 5.41715 47.6706 4.98016C47.4896 4.54316 47.3965 4.0748 47.3965 3.60181C47.3965 3.12881 47.4896 2.66045 47.6706 2.22345C47.8516 1.78646 48.117 1.38941 48.4514 1.05495C48.7859 0.720493 49.183 0.455188 49.62 0.274181C50.057 0.0931734 50.5253 3.18872e-06 50.9983 3.14736e-06C51.4713 3.10601e-06 51.9397 0.0931732 52.3767 0.274181C52.8137 0.455188 53.2108 0.720492 53.5453 1.05495L85.9442 33.4531C86.2789 33.7875 86.5444 34.1845 86.7256 34.6215C86.9068 35.0585 87 35.5269 87 36C87 36.4731 86.9068 36.9415 86.7256 37.3785C86.5444 37.8155 86.2789 38.2125 85.9442 38.5469L53.5453 70.9451C52.8698 71.6205 51.9536 72 50.9983 72C50.0431 72 49.1269 71.6205 48.4514 70.9451C47.7759 70.2696 47.3965 69.3535 47.3965 68.3982C47.3965 67.4429 47.7759 66.5268 48.4514 65.8513L74.7081 39.5998L4.19988 39.5998C3.24513 39.5998 2.32949 39.2205 1.65438 38.5455C0.979268 37.8704 0.599995 36.9547 0.599995 36Z" fill="#13140E"></path>
</svg>