<svg xmlns="http://www.w3.org/2000/svg" class="brand-logo" width="115" height="35" viewBox="0 0 115 35" fill="#f2695c">
 <g clip-path="url(#fantom-logo__69089212c80da)">
 <path d="M22.9605 7.91984H13.4809V4.96597H24.5365L27.1637 0.0428467H0L5.53594 4.96597H8.57149V6.61588V35L13.4809 25.7983V12.8444H20.3333L22.9605 7.91984Z" fill="#f2695c"></path>
 <path d="M106.212 0.0428467L95.7798 9.29329L85.3478 0.0428467V21.607C87.0211 21.811 88.659 22.0343 90.2572 22.2723V10.9698L95.7798 15.8663L101.302 10.9698V25.7983L106.212 34.9985V4.96745H109.246L114.844 0.0428467H106.212Z" fill="#f2695c"></path>
 <path d="M49.2131 9.02277L39.0877 0.042874V18.2895L29.3279 0L16.8039 23.4698C18.775 23.0869 20.8228 22.7306 22.9413 22.4024L29.3279 10.4347L34.9346 20.9417C36.2998 20.8161 37.6856 20.7022 39.0877 20.5988C39.4828 20.5692 39.8779 20.5426 40.276 20.5145C41.504 20.4302 42.7439 20.3563 43.9971 20.2912V10.9684L54.1224 19.9483V4.966H58.7871V19.9556C60.4383 19.966 62.0762 19.9911 63.6964 20.031V4.966H68.3788V20.1922C70.0359 20.2646 71.6723 20.3533 73.2881 20.4568C73.7201 20.4849 74.1521 20.513 74.5811 20.5441C74.5929 20.5441 74.6047 20.5455 74.6165 20.547C75.041 20.5766 75.4656 20.6076 75.8873 20.6387C75.9006 20.6387 75.9124 20.6402 75.9256 20.6416C76.3517 20.6742 76.7748 20.7067 77.1965 20.7407C77.2024 20.7407 77.2068 20.7407 77.2127 20.7407C77.6402 20.7747 78.0663 20.8117 78.4909 20.8486C80.1553 20.9935 81.7933 21.1546 83.4002 21.3321V0.042874H49.2131V9.02277ZM73.2896 15.0266V4.966H78.4923V15.4095C76.7778 15.2646 75.0425 15.1375 73.2896 15.0266Z" fill="#f2695c"></path>
 </g>
 <defs>
 <clipPath id="fantom-logo__69089212c80da">
 <rect width="114.844" height="35" fill="#f2695c"></rect>
 </clipPath>
 </defs>
</svg>