<svg width="72" height="72" viewBox="0 0 72 72" fill="none" xmlns="http://www.w3.org/2000/svg">
<rect x="0.5" y="0.5" width="71" height="71" rx="35.5" fill="#F5F9E9"/>
<rect x="0.5" y="0.5" width="71" height="71" rx="35.5" stroke="#13140E"/>
<path d="M46.5 36C46.5006 36.2546 46.4353 36.5051 46.3105 36.727C46.1856 36.949 46.0055 37.1348 45.7875 37.2665L32.28 45.5297C32.0523 45.6691 31.7914 45.7452 31.5244 45.7502C31.2575 45.7551 30.994 45.6887 30.7613 45.5578C30.5307 45.4289 30.3387 45.2409 30.2049 45.0132C30.0711 44.7855 30.0004 44.5263 30 44.2622V27.7378C30.0004 27.4737 30.0711 27.2144 30.2049 26.9867C30.3387 26.759 30.5307 26.5711 30.7613 26.4422C30.994 26.3112 31.2575 26.2448 31.5244 26.2498C31.7914 26.2547 32.0523 26.3308 32.28 26.4703L45.7875 34.7334C46.0055 34.8651 46.1856 35.051 46.3105 35.2729C46.4353 35.4949 46.5006 35.7453 46.5 36Z" fill="#13140E"/>
</svg>
