<svg width="184" height="184" viewBox="0 0 184 184" fill="none" xmlns="http://www.w3.org/2000/svg">
<rect x="0.5" y="0.5" width="183" height="183" rx="91.5" fill="#F5F9E9"/>
<rect x="0.5" y="0.5" width="183" height="183" rx="91.5" stroke="#13140E"/>
<path d="M102.5 92C102.501 92.2546 102.435 92.5051 102.31 92.727C102.186 92.949 102.005 93.1348 101.787 93.2665L88.28 101.53C88.0523 101.669 87.7914 101.745 87.5244 101.75C87.2575 101.755 86.994 101.689 86.7613 101.558C86.5307 101.429 86.3387 101.241 86.2049 101.013C86.0711 100.786 86.0004 100.526 86 100.262V83.7378C86.0004 83.4737 86.0711 83.2144 86.2049 82.9867C86.3387 82.759 86.5307 82.5711 86.7613 82.4422C86.994 82.3112 87.2575 82.2448 87.5244 82.2498C87.7914 82.2547 88.0523 82.3308 88.28 82.4703L101.787 90.7334C102.005 90.8651 102.186 91.051 102.31 91.2729C102.435 91.4949 102.501 91.7453 102.5 92Z" fill="#13140E"/>
</svg>
