<svg class="icon icon-cart-empty" aria-hidden="true" focusable="false" xmlns="http://www.w3.org/2000/svg" viewBox="0 0 32 32" fill="none">
  <!--path d="m15.75 11.8h-3.16l-.77 11.6a5 5 0 0 0 4.99 5.34h7.38a5 5 0 0 0 4.99-5.33l-.78-11.61zm0 1h-2.22l-.71 10.67a4 4 0 0 0 3.99 4.27h7.38a4 4 0 0 0 4-4.27l-.72-10.67h-2.22v.63a4.75 4.75 0 1 1 -9.5 0zm8.5 0h-7.5v.63a3.75 3.75 0 1 0 7.5 0z" fill="currentColor" fill-rule="evenodd"/-->
  <g stroke="#fbfbfb" stroke-miterlimit="10" stroke-width="3">
      <path d="m22.0001 11.1666c0-1.59127-.6321-3.1174-1.7573-4.24261-1.1253-1.12522-2.6514-1.75736-4.2427-1.75736s-3.1174.63214-4.2426 1.75736c-1.1252 1.12521-1.7574 2.65134-1.7574 4.24261" stroke-linecap="square"></path>
      <path d="m27.3334 13.1666h-22.66665v14.6667h22.66665z"></path>
  </g>
</svg>